<mxfile host="app.diagrams.net" modified="2023-10-11T08:46:56.914Z" agent="Mozilla/5.0 (Windows NT 10.0; Win64; x64) AppleWebKit/537.36 (KHTML, like Gecko) Chrome/117.0.0.0 Safari/537.36" etag="yLZkZ7kdKGpRLSomvNHA" version="22.0.4" type="github">
  <diagram id="C5RBs43oDa-KdzZeNtuy" name="Page-1">
    <mxGraphModel dx="2261" dy="750" grid="1" gridSize="10" guides="1" tooltips="1" connect="1" arrows="1" fold="1" page="1" pageScale="1" pageWidth="827" pageHeight="1169" background="#ffffff" math="0" shadow="0">
      <root>
        <mxCell id="WIyWlLk6GJQsqaUBKTNV-0" />
        <mxCell id="WIyWlLk6GJQsqaUBKTNV-1" parent="WIyWlLk6GJQsqaUBKTNV-0" />
        <mxCell id="GN8b9wlNIwaGFEjr1hPO-3" value="" style="edgeStyle=orthogonalEdgeStyle;rounded=0;orthogonalLoop=1;jettySize=auto;html=1;" edge="1" parent="WIyWlLk6GJQsqaUBKTNV-1" source="GN8b9wlNIwaGFEjr1hPO-0" target="GN8b9wlNIwaGFEjr1hPO-1">
          <mxGeometry relative="1" as="geometry" />
        </mxCell>
        <mxCell id="GN8b9wlNIwaGFEjr1hPO-0" value="" style="ellipse;whiteSpace=wrap;html=1;aspect=fixed;" vertex="1" parent="WIyWlLk6GJQsqaUBKTNV-1">
          <mxGeometry x="50" y="30" width="50" height="50" as="geometry" />
        </mxCell>
        <mxCell id="GN8b9wlNIwaGFEjr1hPO-6" value="" style="edgeStyle=orthogonalEdgeStyle;rounded=0;orthogonalLoop=1;jettySize=auto;html=1;" edge="1" parent="WIyWlLk6GJQsqaUBKTNV-1" source="GN8b9wlNIwaGFEjr1hPO-1" target="GN8b9wlNIwaGFEjr1hPO-4">
          <mxGeometry relative="1" as="geometry" />
        </mxCell>
        <mxCell id="GN8b9wlNIwaGFEjr1hPO-1" value="start browser" style="rounded=1;whiteSpace=wrap;html=1;" vertex="1" parent="WIyWlLk6GJQsqaUBKTNV-1">
          <mxGeometry x="22.5" y="120" width="105" height="50" as="geometry" />
        </mxCell>
        <mxCell id="GN8b9wlNIwaGFEjr1hPO-9" value="" style="edgeStyle=orthogonalEdgeStyle;rounded=0;orthogonalLoop=1;jettySize=auto;html=1;" edge="1" parent="WIyWlLk6GJQsqaUBKTNV-1" source="GN8b9wlNIwaGFEjr1hPO-4" target="GN8b9wlNIwaGFEjr1hPO-7">
          <mxGeometry relative="1" as="geometry" />
        </mxCell>
        <mxCell id="GN8b9wlNIwaGFEjr1hPO-4" value="Navigate to ABSA online banking" style="rounded=1;whiteSpace=wrap;html=1;" vertex="1" parent="WIyWlLk6GJQsqaUBKTNV-1">
          <mxGeometry x="22.5" y="200" width="105" height="50" as="geometry" />
        </mxCell>
        <mxCell id="GN8b9wlNIwaGFEjr1hPO-11" value="" style="edgeStyle=orthogonalEdgeStyle;rounded=0;orthogonalLoop=1;jettySize=auto;html=1;" edge="1" parent="WIyWlLk6GJQsqaUBKTNV-1" source="GN8b9wlNIwaGFEjr1hPO-7" target="GN8b9wlNIwaGFEjr1hPO-10">
          <mxGeometry relative="1" as="geometry" />
        </mxCell>
        <mxCell id="GN8b9wlNIwaGFEjr1hPO-7" value="Enter Account Number" style="rounded=1;whiteSpace=wrap;html=1;" vertex="1" parent="WIyWlLk6GJQsqaUBKTNV-1">
          <mxGeometry x="22.5" y="280" width="105" height="50" as="geometry" />
        </mxCell>
        <mxCell id="GN8b9wlNIwaGFEjr1hPO-13" value="" style="edgeStyle=orthogonalEdgeStyle;rounded=0;orthogonalLoop=1;jettySize=auto;html=1;" edge="1" parent="WIyWlLk6GJQsqaUBKTNV-1" source="GN8b9wlNIwaGFEjr1hPO-10" target="GN8b9wlNIwaGFEjr1hPO-12">
          <mxGeometry relative="1" as="geometry" />
        </mxCell>
        <mxCell id="GN8b9wlNIwaGFEjr1hPO-10" value="Enter Username" style="rounded=1;whiteSpace=wrap;html=1;" vertex="1" parent="WIyWlLk6GJQsqaUBKTNV-1">
          <mxGeometry x="22.5" y="360" width="105" height="50" as="geometry" />
        </mxCell>
        <mxCell id="GN8b9wlNIwaGFEjr1hPO-15" value="" style="edgeStyle=orthogonalEdgeStyle;rounded=0;orthogonalLoop=1;jettySize=auto;html=1;" edge="1" parent="WIyWlLk6GJQsqaUBKTNV-1" source="GN8b9wlNIwaGFEjr1hPO-12" target="GN8b9wlNIwaGFEjr1hPO-14">
          <mxGeometry relative="1" as="geometry" />
        </mxCell>
        <mxCell id="GN8b9wlNIwaGFEjr1hPO-12" value="Enter PIN" style="rounded=1;whiteSpace=wrap;html=1;" vertex="1" parent="WIyWlLk6GJQsqaUBKTNV-1">
          <mxGeometry x="22.5" y="440" width="105" height="50" as="geometry" />
        </mxCell>
        <mxCell id="GN8b9wlNIwaGFEjr1hPO-17" value="" style="edgeStyle=orthogonalEdgeStyle;rounded=0;orthogonalLoop=1;jettySize=auto;html=1;" edge="1" parent="WIyWlLk6GJQsqaUBKTNV-1" source="GN8b9wlNIwaGFEjr1hPO-14" target="GN8b9wlNIwaGFEjr1hPO-16">
          <mxGeometry relative="1" as="geometry" />
        </mxCell>
        <mxCell id="GN8b9wlNIwaGFEjr1hPO-14" value="Click on Sign In button" style="rounded=1;whiteSpace=wrap;html=1;" vertex="1" parent="WIyWlLk6GJQsqaUBKTNV-1">
          <mxGeometry x="22.5" y="520" width="105" height="50" as="geometry" />
        </mxCell>
        <mxCell id="GN8b9wlNIwaGFEjr1hPO-19" value="" style="edgeStyle=orthogonalEdgeStyle;rounded=0;orthogonalLoop=1;jettySize=auto;html=1;" edge="1" parent="WIyWlLk6GJQsqaUBKTNV-1" source="GN8b9wlNIwaGFEjr1hPO-16" target="GN8b9wlNIwaGFEjr1hPO-18">
          <mxGeometry relative="1" as="geometry" />
        </mxCell>
        <mxCell id="GN8b9wlNIwaGFEjr1hPO-16" value="Enter a SurePhrase" style="rounded=1;whiteSpace=wrap;html=1;" vertex="1" parent="WIyWlLk6GJQsqaUBKTNV-1">
          <mxGeometry x="22.5" y="600" width="105" height="50" as="geometry" />
        </mxCell>
        <mxCell id="GN8b9wlNIwaGFEjr1hPO-21" value="" style="edgeStyle=orthogonalEdgeStyle;rounded=0;orthogonalLoop=1;jettySize=auto;html=1;" edge="1" parent="WIyWlLk6GJQsqaUBKTNV-1" source="GN8b9wlNIwaGFEjr1hPO-18" target="GN8b9wlNIwaGFEjr1hPO-20">
          <mxGeometry relative="1" as="geometry" />
        </mxCell>
        <mxCell id="GN8b9wlNIwaGFEjr1hPO-29" value="No" style="edgeLabel;html=1;align=center;verticalAlign=middle;resizable=0;points=[];" vertex="1" connectable="0" parent="GN8b9wlNIwaGFEjr1hPO-21">
          <mxGeometry x="-0.6593" y="-2" relative="1" as="geometry">
            <mxPoint as="offset" />
          </mxGeometry>
        </mxCell>
        <mxCell id="GN8b9wlNIwaGFEjr1hPO-27" style="edgeStyle=orthogonalEdgeStyle;rounded=0;orthogonalLoop=1;jettySize=auto;html=1;entryX=0;entryY=0.5;entryDx=0;entryDy=0;" edge="1" parent="WIyWlLk6GJQsqaUBKTNV-1" source="GN8b9wlNIwaGFEjr1hPO-18" target="GN8b9wlNIwaGFEjr1hPO-26">
          <mxGeometry relative="1" as="geometry" />
        </mxCell>
        <mxCell id="GN8b9wlNIwaGFEjr1hPO-30" value="Yes" style="edgeLabel;html=1;align=center;verticalAlign=middle;resizable=0;points=[];" vertex="1" connectable="0" parent="GN8b9wlNIwaGFEjr1hPO-27">
          <mxGeometry x="-0.9645" y="1" relative="1" as="geometry">
            <mxPoint as="offset" />
          </mxGeometry>
        </mxCell>
        <mxCell id="GN8b9wlNIwaGFEjr1hPO-32" style="edgeStyle=orthogonalEdgeStyle;rounded=0;orthogonalLoop=1;jettySize=auto;html=1;entryX=0;entryY=0.5;entryDx=0;entryDy=0;" edge="1" parent="WIyWlLk6GJQsqaUBKTNV-1" target="GN8b9wlNIwaGFEjr1hPO-16">
          <mxGeometry relative="1" as="geometry">
            <mxPoint x="-17.53" y="670" as="targetPoint" />
            <mxPoint x="35.004482758620696" y="725.0344827586207" as="sourcePoint" />
            <Array as="points">
              <mxPoint x="36" y="725" />
              <mxPoint x="36" y="720" />
              <mxPoint x="-50" y="720" />
              <mxPoint x="-50" y="625" />
            </Array>
          </mxGeometry>
        </mxCell>
        <mxCell id="GN8b9wlNIwaGFEjr1hPO-33" value="Retry" style="edgeLabel;html=1;align=center;verticalAlign=middle;resizable=0;points=[];" vertex="1" connectable="0" parent="GN8b9wlNIwaGFEjr1hPO-32">
          <mxGeometry x="0.0952" y="2" relative="1" as="geometry">
            <mxPoint as="offset" />
          </mxGeometry>
        </mxCell>
        <mxCell id="GN8b9wlNIwaGFEjr1hPO-18" value="Login&lt;br&gt;successful" style="rhombus;whiteSpace=wrap;html=1;" vertex="1" parent="WIyWlLk6GJQsqaUBKTNV-1">
          <mxGeometry x="35" y="680" width="80" height="80" as="geometry" />
        </mxCell>
        <mxCell id="GN8b9wlNIwaGFEjr1hPO-23" value="" style="edgeStyle=orthogonalEdgeStyle;rounded=0;orthogonalLoop=1;jettySize=auto;html=1;" edge="1" parent="WIyWlLk6GJQsqaUBKTNV-1" source="GN8b9wlNIwaGFEjr1hPO-20" target="GN8b9wlNIwaGFEjr1hPO-22">
          <mxGeometry relative="1" as="geometry" />
        </mxCell>
        <mxCell id="GN8b9wlNIwaGFEjr1hPO-20" value="Retrieve error&lt;br&gt;message" style="rounded=1;whiteSpace=wrap;html=1;" vertex="1" parent="WIyWlLk6GJQsqaUBKTNV-1">
          <mxGeometry x="22.5" y="790" width="105" height="50" as="geometry" />
        </mxCell>
        <mxCell id="GN8b9wlNIwaGFEjr1hPO-25" value="" style="edgeStyle=orthogonalEdgeStyle;rounded=0;orthogonalLoop=1;jettySize=auto;html=1;" edge="1" parent="WIyWlLk6GJQsqaUBKTNV-1" source="GN8b9wlNIwaGFEjr1hPO-22" target="GN8b9wlNIwaGFEjr1hPO-24">
          <mxGeometry relative="1" as="geometry" />
        </mxCell>
        <mxCell id="GN8b9wlNIwaGFEjr1hPO-22" value="Close browser session" style="rounded=1;whiteSpace=wrap;html=1;" vertex="1" parent="WIyWlLk6GJQsqaUBKTNV-1">
          <mxGeometry x="22.5" y="880" width="105" height="50" as="geometry" />
        </mxCell>
        <mxCell id="GN8b9wlNIwaGFEjr1hPO-24" value="" style="ellipse;whiteSpace=wrap;html=1;aspect=fixed;" vertex="1" parent="WIyWlLk6GJQsqaUBKTNV-1">
          <mxGeometry x="50" y="980" width="50" height="50" as="geometry" />
        </mxCell>
        <mxCell id="GN8b9wlNIwaGFEjr1hPO-26" value="Wait for the browser to finish navigating to home page" style="rounded=1;whiteSpace=wrap;html=1;" vertex="1" parent="WIyWlLk6GJQsqaUBKTNV-1">
          <mxGeometry x="210" y="120" width="110" height="50" as="geometry" />
        </mxCell>
      </root>
    </mxGraphModel>
  </diagram>
</mxfile>
